<?xml version="1.0" encoding="utf-8"?>
<!-- Generator: Adobe Illustrator 19.0.0, SVG Export Plug-In . SVG Version: 6.00 Build 0)  -->
<svg xmlns="http://www.w3.org/2000/svg" xmlns:xlink="http://www.w3.org/1999/xlink" version="1.1" id="Layer_1" x="0px" y="0px" viewBox="0 2 98 98" style="enable-background:new 0 2 98 98;" xml:space="preserve" width="512" height="512">
<style type="text/css">
	.st0{fill:url(#SVGID_1_);}
</style>
<linearGradient id="SVGID_1_" gradientUnits="userSpaceOnUse" x1="49" y1="18.5991" x2="49" y2="83.4009">
	<stop offset="0" style="stop-color:#00EFD1"/>
	<stop offset="1" style="stop-color:#00ACEA"/>
</linearGradient>
<path class="st0" d="M88.5,48h-14c-1.1,0-2.2,0.6-2.7,1.6L60,72.8L41.3,20.6c-0.4-1.1-1.4-1.9-2.6-2c-1.2-0.1-2.3,0.6-2.9,1.6  L21.7,48H9.5c-1.7,0-3,1.3-3,3c0,1.7,1.3,3,3,3h14c1.1,0,2.2-0.6,2.7-1.6L38,29.2l18.7,52.3c0.4,1.1,1.4,1.9,2.6,2  c0.1,0,0.1,0,0.2,0c1.1,0,2.2-0.6,2.7-1.6L76.3,54h12.2c1.7,0,3-1.3,3-3C91.5,49.3,90.2,48,88.5,48z"/>
</svg>
