<svg id="Capa_1" enable-background="new 0 0 512 512" height="512" viewBox="0 0 512 512" width="512" xmlns="http://www.w3.org/2000/svg" xmlns:xlink="http://www.w3.org/1999/xlink"><linearGradient id="SVGID_1_" gradientUnits="userSpaceOnUse" x1="195.5" x2="195.5" y1="512" y2="121"><stop offset="0" stop-color="#ffe59a"/><stop offset="1" stop-color="#ffffd5"/></linearGradient><linearGradient id="SVGID_2_" gradientUnits="userSpaceOnUse" x1="316.5" x2="316.5" y1="391" y2="0"><stop offset="0" stop-color="#fd5900"/><stop offset="1" stop-color="#ffde00"/></linearGradient><g><g><g><path d="m196 121c-107.696 0-196 87.304-196 195 0 107.695 88.304 196 196 196s195-88.305 195-196c0-107.696-87.304-195-195-195z" fill="url(#SVGID_1_)"/></g></g><g><g><path d="m503.006 289.735c-49.204-21.489-82.006-70.048-82.006-123.735 0-53.701 32.787-103.261 81.991-124.721 5.479-2.387 9.009-7.793 9.009-13.755s-3.53-11.367-8.994-13.74c-20.947-9.155-44.154-13.784-67.006-13.784-90.981 0-165 75.019-165 166s74.019 165 165 165c22.852 0 46.059-4.629 67.006-13.784 5.464-2.373 8.994-7.778 8.994-13.74s-3.53-11.368-8.994-13.741zm-307.006-78.735c-8.291 0-15 6.709-15 15v83.789l-55.605 55.605c-5.859 5.859-5.859 15.352 0 21.211s15.351 5.859 21.211 0l59.982-59.981c2.822-2.815 4.412-6.733 4.412-10.624v-90c0-8.291-6.709-15-15-15z" fill="url(#SVGID_2_)"/></g></g></g></svg>