<svg id="Capa_1" enable-background="new 0 0 512 512" height="512" viewBox="0 0 512 512" width="512" xmlns="http://www.w3.org/2000/svg" xmlns:xlink="http://www.w3.org/1999/xlink"><linearGradient id="SVGID_1_" gradientUnits="userSpaceOnUse" x1="256" x2="256" y1="512" y2="0"><stop offset="0" stop-color="#fd3a84"/><stop offset="1" stop-color="#ffa68d"/></linearGradient><linearGradient id="SVGID_2_" gradientUnits="userSpaceOnUse" x1="256" x2="256" y1="452" y2="61.15"><stop offset="0" stop-color="#ffc2cc"/><stop offset="1" stop-color="#fff2f4"/></linearGradient><g><g><g><path d="m439.691 37.299c-56.748-24.082-118.564-37.299-183.691-37.299s-126.943 13.217-183.691 37.299c-43.418 18.398-68.907 64.306-62.022 111.621l43.389 298.861c5.303 36.621 37.207 64.219 74.209 64.219h256.23c37.002 0 68.906-27.598 74.209-64.189l43.389-298.891c6.885-47.315-18.604-93.223-62.022-111.621z" fill="url(#SVGID_1_)"/></g></g><g><g><path d="m158.2 185.499c3.3 5.7 10.501 8.401 16.8 6.601 21-6 43.5-9.6 66-10.8v-45.3c0-8.401 6.599-15 15-15s15 6.599 15 15v45.3c43.414 2.314 63.913 11.4 70.201 11.4 5.099 0 9.899-2.701 12.599-7.202l48.9-79.199c2.399-3.9 2.999-8.701 1.5-12.902-1.8-4.199-5.099-7.5-9.3-9.3-87.001-30.599-190.8-30.599-277.8 0-4.2 1.8-7.5 5.101-9.3 9.3-1.5 4.2-.899 9.001 1.5 12.902zm263.474 60.687c-2.842-3.281-6.973-5.186-11.338-5.186h-308.672c-4.365 0-8.496 1.904-11.338 5.186-2.871 3.311-4.131 7.676-3.516 11.982l26.25 181c1.084 7.354 7.412 12.832 14.854 12.832h256.172c7.441 0 13.77-5.479 14.854-12.832l26.25-181c.615-4.307-.645-8.672-3.516-11.982z" fill="url(#SVGID_2_)"/></g></g></g></svg>